<?xml version="1.0" encoding="UTF-8" standalone="no"?>
<!-- Created with Inkscape (http://www.inkscape.org/) -->

<svg
   version="1.1"
   id="svg2"
   width="3003.1333"
   height="4081.6799"
   viewBox="0 0 3003.1333 4081.6799"
   sodipodi:docname="mjolnir.eps"
   xmlns:inkscape="http://www.inkscape.org/namespaces/inkscape"
   xmlns:sodipodi="http://sodipodi.sourceforge.net/DTD/sodipodi-0.dtd"
   xmlns="http://www.w3.org/2000/svg"
   xmlns:svg="http://www.w3.org/2000/svg">
  <defs
     id="defs6" />
  <sodipodi:namedview
     id="namedview4"
     pagecolor="#ffffff"
     bordercolor="#000000"
     borderopacity="0.25"
     inkscape:showpageshadow="2"
     inkscape:pageopacity="0.0"
     inkscape:pagecheckerboard="0"
     inkscape:deskcolor="#d1d1d1" />
  <g
     id="g8"
     inkscape:groupmode="layer"
     inkscape:label="ink_ext_XXXXXX"
     transform="matrix(1.3333333,0,0,-1.3333333,0,4081.68)">
    <g
       id="g10"
       transform="scale(0.1)">
      <path
         d="m 10028,29990 60.3,104.4 1934,518.2 9982.9,-5763.6 518.3,-1934.1 -60.3,-104.4 L 10028,29990 Z M 7087.81,24897.4 9839.71,29663.8 22274.9,22484.4 19523,17717.9 7087.81,24897.4 Z m -248.61,-430.6 60.3,104.4 12435.1,-7179.4 -60.2,-104.5 -1934.1,-518.2 -9982.87,5763.6 -518.23,1934.1 z M 621.852,2982.9 41.6836,1978.1 C -44.3633,1829 7.16016,1636.7 156.215,1550.6 L 2769.89,41.6016 c 149.07,-86 341.37,-34.50004 427.42,114.6014 L 3777.48,1161 c 36.19,62.7 48.07,133.1 38.57,199.9 -55.26,388.9 -68.76,725.5 -44.73,1117.6 l 120.93,1974.2 c 7.33,119.4 -49.71,225.6 -153.3,285.4 -103.58,59.8 -224.07,56.1 -323.81,-9.9 L 1765.9,3636.3 c -327.58,-216.8 -625.77,-373.4 -990.255,-520 -62.633,-25.2 -117.637,-70.7 -153.793,-133.4 z M 3012.52,6248.7 2106.42,4679.3 c -21.33,-36.9 -15.2,-82 15.14,-112 30.35,-29.9 75.56,-35.3 112.16,-13.5 l 824.23,492.3 c 250.05,149.4 574.4,143.4 849.82,-15.6 275.44,-159 442.75,-436.9 438.44,-728.1 l -14.21,-960 c -0.62,-42.6 26.69,-79 67.78,-90.4 41.05,-11.3 83.19,5.9 104.48,42.9 l 745.54,1291.3 c 60.33,104.4 74.3,216.4 41.49,332.5 -85.11,301.3 -196.25,581.7 -335.87,839.1 -128.04,235.9 -280.79,453.3 -460.17,650.5 -204.77,225.2 -479.32,329.3 -781.92,296.8 -302.55,-32.6 -548.66,-192.8 -700.81,-456.4 z m 1550.19,2685 -290.67,-503.5 c -230.44,-399.1 -135.4,-898.3 225.55,-1184.8 379.82,-301.6 686.24,-660.2 926.94,-1069.7 79.87,-135.9 215.51,-213.2 373.18,-212.6 157.61,0.7 292.67,79 371.48,215.5 l 333.6,577.8 c 60.32,104.5 74.29,216.4 41.49,332.5 -85.11,301.3 -196.25,581.7 -335.87,839.1 -246.48,454.3 -584.52,839.6 -1028.05,1145.1 -102.67,70.7 -217.69,93 -339.34,65.5 -121.64,-27.5 -215.98,-96.9 -278.31,-204.9 z m 1253,2170.2 -290.69,-503.4 c -230.44,-399.1 -135.39,-898.3 225.56,-1184.9 379.81,-301.5 686.25,-660.2 926.94,-1069.6 79.87,-135.9 215.52,-213.2 373.16,-212.6 157.63,0.6 292.68,78.9 371.51,215.4 l 333.58,577.8 c 60.33,104.5 74.31,216.4 41.49,332.6 -85.09,301.3 -196.24,581.7 -335.85,839.1 -246.48,454.2 -584.53,839.5 -1028.06,1145.1 -102.68,70.7 -217.71,92.9 -339.34,65.4 -121.64,-27.4 -215.98,-96.9 -278.3,-204.9 z m 1252.98,2170.3 -290.67,-503.5 c -230.45,-399.1 -135.41,-898.3 225.55,-1184.8 379.81,-301.6 686.25,-660.2 926.94,-1069.7 79.87,-135.9 215.52,-213.2 373.17,-212.6 157.61,0.6 292.68,78.9 371.5,215.5 l 333.58,577.8 c 60.34,104.5 74.31,216.4 41.49,332.5 -85.1,301.3 -196.25,581.7 -335.86,839.1 -246.48,454.3 -584.52,839.6 -1028.05,1145.1 -102.68,70.7 -217.7,92.9 -339.34,65.5 -121.64,-27.5 -215.98,-96.9 -278.31,-204.9 z m 1252.99,2170.2 -290.67,-503.4 c -230.45,-399.1 -135.4,-898.3 225.54,-1184.9 379.82,-301.5 686.25,-660.2 926.95,-1069.7 79.87,-135.9 215.51,-213.2 373.16,-212.5 157.63,0.6 292.69,78.9 371.51,215.4 l 333.53,577.8 c 60.4,104.5 74.3,216.4 41.5,332.5 -85.1,301.3 -196.2,581.7 -335.82,839.1 -246.48,454.3 -584.53,839.6 -1028.05,1145.2 -102.67,70.7 -217.71,92.9 -339.34,65.4 -121.65,-27.4 -215.98,-96.9 -278.31,-204.9 z m 1252.98,2170.3 -290.67,-503.5 c -230.45,-399.1 -135.39,-898.3 225.55,-1184.8 379.85,-301.6 686.26,-660.2 926.96,-1069.7 79.9,-135.9 215.5,-213.2 373.2,-212.6 157.6,0.6 292.6,78.9 371.5,215.5 l 333.5,577.8 c 60.4,104.5 74.3,216.4 41.5,332.5 -85.1,301.3 -196.2,581.7 -335.8,839.1 -246.5,454.2 -584.6,839.5 -1028.1,1145.1 -102.7,70.7 -217.69,92.9 -339.32,65.5 -121.64,-27.5 -215.98,-96.9 -278.32,-204.9 z m 1335.34,2312.8 -373,-646.1 c -230.5,-399.1 -135.4,-898.3 225.5,-1184.8 379.8,-301.5 686.3,-660.2 927,-1069.7 79.8,-135.9 215.5,-213.1 373.1,-212.6 157.6,0.7 292.7,79 371.5,215.5 l 873.7,1513.3 -2397.8,1384.4 z m 4868.7,9070.6 811.7,164.6 c 306.2,62 589.7,15.7 860.2,-140.4 l 463.2,-267.4 c 270.5,-156.2 452.3,-378.6 551.7,-674.8 l 263.4,-785.3 -2950.2,1703.3 v 0"
         style="fill:#231f20;fill-opacity:1;fill-rule:evenodd;stroke:none"
         id="path12" />
    </g>
  </g>
</svg>
